<svg xmlns="http://www.w3.org/2000/svg" viewBox="0 0 1024 768" version="1.1"><g id="react-group-295" stroke="none" stroke-width="1" fill="#FFFFFF00" fill-rule="evenodd"><g id="react-group-296"><rect id="react-rect-298" x="0" y="0" width="1024" height="768"></rect><path d="M289,498.201896 C310.874043,486.651961 332.74715,475.102027 354.620257,463.552092 C375.361302,509.793201 427.433312,539.463483 477.482581,528.521885 C489.68171,525.855358 501.775118,519.826525 507.631898,508.191029 C512.03758,499.440195 512.20318,489.164288 510.208506,479.73366 C508.528191,471.788613 505.399585,463.403534 500.280984,457.008947 C493.848818,448.973638 483.961526,442.802828 475.96038,436.498505 C463.56197,426.727508 451.052226,417.100369 438.507865,407.519301 C436.863101,406.264078 432.284335,404.007497 431.362781,402.07624 C430.590921,400.459023 431.362781,396.532572 431.362781,394.762096 L431.362781,386.427789 C449.56277,393.067779 469.861283,396.72156 489.20456,395.725844 C521.407492,394.067257 547.263396,370.751132 570.22927,350.044179 C574.324338,346.351848 578.350172,342.581477 582.279641,338.712381 C583.031853,337.97053 584.937646,335.229724 585.988311,335.02287 C587.393564,334.745499 591.087264,337.072598 592.379311,337.592552 C596.849549,339.389355 601.319788,341.186158 605.790962,342.983901 C616.674655,347.358847 627.615418,350.932708 637.442833,357.359263 C679.145723,384.631927 723.511296,417.977615 742.468176,465.75508 C753.24334,492.911153 759.668957,521.909162 763.591877,550.827249 C764.126097,554.769685 765.496734,559.680569 764.812819,563.621124 C763.561002,570.843124 759.460321,578.495755 756.984756,585.370806 C753.841181,594.106596 750.69667,602.842386 747.553095,611.578175 C747.205992,612.541924 746.776557,614.977151 745.971016,615.582667 C744.291636,616.843531 738.68653,616.413841 736.670338,616.634798 C725.093375,617.907886 713.484601,619.197898 701.851503,619.837262 C691.395374,620.41175 681.642807,617.735821 671.671312,614.757134 C666.121405,613.098547 660.611729,611.304565 655.13012,609.431603 C653.897951,609.010374 647.869958,607.875502 647.166396,606.636263 C646.857652,606.091862 647.895219,603.538165 648.038364,602.940171 C648.94682,599.135011 649.785107,595.312926 650.57755,591.48238 C656.172365,564.434434 660.291758,536.087073 657.930334,508.42985 C655.469738,479.61707 639.475865,456.853807 619.326111,437.145391 C611.912513,429.894244 604.025508,423.114158 595.770817,416.848384 C594.324398,415.749241 591.683234,412.887144 589.853224,412.520449 C588.384351,412.225213 587.280357,413.452229 585.815227,414.410336 C581.570465,417.18311 577.325703,419.955884 573.081877,422.727718 C571.941396,423.47239 567.49174,425.436556 567.080081,426.749134 C566.732978,427.854859 568.546148,431.51146 568.849278,432.574874 C570.136647,437.076754 571.285549,441.620004 572.324051,446.18582 C579.129517,476.099624 582.308644,508.843557 573.947296,538.762062 C566.052806,567.016339 547.815393,592.442367 523.349772,608.52991 C498.041187,625.173137 468.60666,629.292338 439.229203,623.561562 C386.983174,613.366516 333.417966,582.712741 304.962999,536.515824 C297.677577,524.687577 292.173514,511.754546 289,498.201896" id="react-path-299" fill="#7fbbca"></path><g id="react-group-297" transform="translate(177.000000, 17.000000)" fill="#2d3d8b"><path d="M581.933893,544.95016 C579.904921,561.035232 572.714611,576.319566 563.814461,589.697695 C562.641813,587.372368 564.060596,585.450223 560.811246,585.008599 C558.629726,584.71137 555.745367,586.252836 553.592859,586.61945 C545.612673,587.977141 537.232868,586.932619 529.260168,586.078437 C531.32564,583.837497 534.057452,582.022242 533.027992,578.375792 C532.250282,575.621968 528.874589,574.55213 527.55688,572.00646 C529.354692,571.227288 534.293292,575.159716 536.023721,575.824496 C535.166461,573.664193 532.24841,569.7974 532.874509,567.425192 C533.334022,565.681197 535.596027,566.015931 533.713051,563.77968 C532.85392,564.5476 530.102454,568.254996 528.603186,567.334241 C530.053788,566.02437 528.993445,565.309895 529.63171,563.992522 C530.125851,562.975192 530.563839,562.481997 531.248898,561.59406 C533.018633,559.2978 534.179115,556.363951 531.927406,553.670135 C531.174964,552.768133 529.885331,552.95941 529.179683,551.941142 C528.499304,550.959441 528.641557,549.807092 528.456254,548.704437 C528.249426,547.465826 528.349564,546.072505 528.007971,544.860147 C527.300451,542.355733 527.029048,542.394176 528.23726,539.812876 C526.996292,540.878025 525.755325,541.942237 524.514358,543.007387 C523.898554,540.394207 523.440912,537.624443 522.167189,535.232545 C521.736688,534.424306 519.432569,532.289319 519.534579,531.446388 C519.236972,533.902046 517.268831,531.007577 516.466788,530.805048 C513.937124,530.167459 509.470204,532.663434 507.542306,534.203963 C502.216254,538.458936 499.03803,546.568512 495.67544,552.374328 C491.980614,558.753036 488.269879,565.833093 487.297507,573.165373 C487.055116,574.990004 486.997092,578.827731 484.934428,579.748485 C483.823548,580.244492 479.196593,578.913993 478.05202,578.251087 C475.253761,576.629922 476.232684,574.201456 477.318296,571.631407 C478.723041,568.305628 479.988341,565.453352 480.635965,561.845345 C481.409932,557.530364 481.966776,553.164751 482.637797,548.83008 C484.045349,539.741616 485.458517,530.610958 486.181947,521.43717 C486.414043,518.50332 486.045309,515.58166 486.155742,512.714382 C486.253073,510.212781 488.171612,507.322062 487.108461,504.338518 C486.74347,503.3165 485.983542,503.077404 486.035015,502.211032 C486.066834,501.673769 487.436952,502.178215 487.620383,501.471241 C487.976015,500.09386 486.66205,498.684599 486.326071,497.408482 C485.792624,495.391637 486.2016,493.5295 486.508566,491.508904 C487.756085,483.297125 485.446351,474.654974 483.242371,466.756365 C480.862446,458.222041 477.62807,450.0112 474.309465,441.809736 C471.387671,434.590909 470.157934,426.755121 466.718602,419.745387 C463.747206,413.690161 460.499727,407.679004 455.142792,403.758766 C452.688934,401.963202 450.916391,399.246883 448.580452,397.263792 C447.187874,396.081438 445.695157,394.811885 444.02088,394.052403 C442.403692,393.319175 440.469243,393.745797 438.995244,393.052888 C436.946619,392.090877 434.673384,389.672725 432.484377,388.727593 C430.593914,387.911853 428.424561,387.3549 426.655762,385.64466 C424.25712,383.324959 423.810709,381.780679 420.442503,381.335304 C418.494016,381.079331 416.562375,381.191847 415.180091,379.2547 C409.71085,371.586748 424.463012,360.515193 417.633013,352.516257 C414.914303,355.258829 413.752885,359.159377 412.439855,362.686748 C410.720657,367.307397 408.299554,371.199506 405.578036,375.294143 C400.813508,382.4614 393.708363,389.728046 391.660673,398.278309 C388.325223,393.610778 386.44599,390.829763 381.410995,395.444786 C380.463892,393.354805 381.712346,389.373621 379.82937,388.030932 C376.518252,385.669038 370.202047,391.549864 368.395813,393.683914 C361.32623,402.040087 357.375912,412.213391 353.494847,422.377319 C351.781265,426.866699 349.938531,432.550623 352.122858,437.19565 C354.056371,441.30529 358.654314,443.559357 362.571877,445.322104 C368.117859,447.817142 372.70925,447.686811 378.602441,448.310336 C381.307113,448.595376 383.745062,449.776792 386.323391,448.401287 C388.555447,447.210494 390.148303,444.833598 392.088367,443.255564 C392.544137,444.738897 393.726144,446.043143 395.231963,444.729521 C397.435944,453.990509 399.630565,463.052719 399.09899,472.64938 C398.610464,481.454679 397.843048,490.296546 396.271718,498.979016 C394.651722,507.933398 392.75658,517.034051 389.230212,525.454922 C385.741278,533.787655 380.389958,541.127435 375.516869,548.670682 C374.034446,545.644007 372.266583,547.138592 370.121562,548.559104 C369.269918,546.7476 370.363953,545.366468 369.18101,543.760305 C368.418274,543.312117 367.736959,542.757977 367.137064,542.097884 C366.930236,540.808641 366.638244,539.539087 366.264831,538.289224 C364.362202,539.065583 363.553608,539.9854 362.685118,541.809094 C359.819475,536.760885 357.789567,537.402225 352.454157,537.726645 C345.307833,538.160769 343.024303,544.346325 340.659353,550.154953 C340.096894,551.538898 339.055267,553.281955 338.932668,554.814983 C338.844696,555.89701 339.804901,557.711327 339.674815,558.270156 C339.406219,559.419692 338.366465,558.461433 338.084767,559.0287 C337.053435,561.113055 336.789519,564.067533 336.241098,566.327225 C334.775521,572.372136 334.330046,582.144134 328.377895,585.583367 C323.395309,588.461896 316.245241,589.142617 310.658081,590.226519 C301.868364,591.932071 292.562046,592.240552 283.630077,592.288371 C275.647082,592.331502 266.103052,593.292575 258.525291,590.283715 C257.415346,589.843965 252.161356,587.372368 253.385478,586.113129 C253.917053,585.567427 256.794862,586.470367 257.384462,586.785411 C256.984844,586.572569 256.687237,584.121599 256.486024,583.567459 C255.73639,581.501856 255.159892,581.430596 253.735494,579.866627 C250.575988,576.399265 254.841696,577.998864 254.554383,575.513203 C254.49823,575.034073 251.118794,576.272684 251.212381,576.240805 C251.321878,575.485074 252.018168,573.917354 251.659728,573.158809 C251.921773,573.714825 249.710306,569.051045 249.973286,570.113382 C249.461363,568.052467 250.897928,566.020619 250.601256,564.028152 C250.180114,561.204005 248.114643,561.76846 246.49839,560.096662 C245.943418,559.522832 245.722552,558.359231 245.177874,557.701951 C244.941098,557.415973 244.075416,557.366279 243.986508,557.21157 C243.395972,556.184863 243.433407,556.014214 244.053891,553.852973 C242.855974,554.378047 239.700211,556.550539 238.479833,555.36631 C237.009577,553.939235 240.094213,552.267438 237.543024,551.2848 C236.515436,550.889119 235.925836,551.995524 235.008681,552.031154 C234.392877,552.054595 234.273085,550.535632 233.503798,550.936001 C232.131808,551.649538 231.776176,554.644334 231.170667,555.942016 C227.744437,547.196725 216.696459,561.571557 214.656257,564.946093 C212.76673,568.069345 212.659104,574.241774 207.994715,573.762644 C205.545536,573.511359 202.733238,570.831608 200.780072,569.520798 C197.915365,567.596778 194.85319,565.997179 191.892088,564.223179 C178.748692,556.348011 166.356801,547.665541 154.719224,537.686327 C150.437606,534.014561 144.707257,529.458609 144.137311,523.769998 C143.908958,521.491553 143.632875,519.411885 143.001161,517.106249 C141.730246,512.466847 140.050355,513.283525 136.341491,510.756607 C137.826721,507.822758 139.948345,507.670861 139.819194,504.12005 C139.71344,501.235895 138.609111,498.357366 137.640482,495.696367 C136.403259,492.30214 135.805236,488.485979 132.179665,487.543659 C128.318254,486.540393 127.701514,488.417532 125.145646,491.130101 C125.409562,489.66927 126.589697,485.964688 124.95192,485.022368 C122.671198,483.710621 121.440525,488.552551 119.650201,489.07575 C118.108819,485.633704 112.892264,480.275138 116.543104,476.854658 C118.384901,475.129416 121.963678,474.467448 124.247208,473.421988 C127.641618,471.86927 130.936826,470.090583 134.23297,468.3419 C148.884057,460.570808 163.11213,452.088054 177.644362,444.104121 C180.206782,450.039329 182.494055,456.11237 185.446733,461.872241 C187.909014,466.676666 192.313231,471.225117 192.135415,476.912791 C191.951984,482.83206 189.272581,488.655691 188.632444,494.577772 C188.208493,498.49801 188.795286,500.044165 193.108723,498.680849 C193.482136,501.383103 197.83488,505.297716 200.156781,506.672284 C203.89372,508.883219 207.61475,504.831713 210.221156,502.320735 C212.062953,504.072231 212.452276,506.659157 213.97307,508.612244 C214.737678,507.790878 214.622565,505.460863 215.109219,505.081123 C215.575284,504.716384 217.204638,505.517121 217.540616,505.507745 C218.049731,505.492743 217.61923,504.046915 218.030078,504.0291 C219.345915,507.272368 222.383758,501.848168 225.304617,504.071293 C224.953664,502.368554 225.433767,501.783472 226.893728,500.970545 C227.649914,504.495103 230.745781,502.836432 233.418633,503.225549 C238.168187,503.915646 242.804501,506.577583 247.472634,507.785252 C257.089662,510.272789 266.170435,511.65017 276.07384,511.488898 C280.036325,511.425139 281.703115,512.028036 284.039053,515.123158 C284.928132,516.299886 285.358634,517.775718 286.900952,518.331734 C289.161084,519.147473 289.289299,517.627572 291.121738,517.198137 C292.986932,516.760263 292.007073,516.29051 293.762771,517.214077 C294.841832,517.782282 295.480097,519.58441 296.362625,520.427341 C298.859534,522.812676 301.512733,523.71749 303.599729,520.447031 C303.995603,521.642511 304.445758,522.010063 305.383502,522.800486 C305.249673,520.914909 304.968911,517.139066 308.081623,518.031692 C310.408203,518.69741 309.326334,522.043818 312.628093,521.463424 C314.479249,521.138065 316.017824,518.462065 317.125897,517.114688 C318.643883,515.267553 318.709394,517.802909 319.007937,514.647779 C319.183882,512.777204 317.962568,510.452815 317.222292,508.821335 C319.995283,509.392353 320.49036,512.328078 323.246505,512.586864 C326.333949,512.876592 327.911831,508.773516 330.903816,509.562064 C330.614631,508.871968 329.497199,506.571019 329.987596,505.890299 C330.743781,504.842964 331.827522,507.327688 333.007658,507.09328 C334.292611,506.836369 335.718881,503.341816 335.44935,502.165088 C334.912159,499.819134 332.186897,500.411717 331.14995,498.551455 C330.202847,496.850592 331.039517,493.735779 330.994595,491.89427 C330.933764,489.38423 330.351651,486.83856 330.786832,484.332271 C331.245409,481.69565 332.573413,479.515657 334.387134,477.570071 C335.647755,476.218006 339.156341,474.124275 336.082,472.568744 C341.530651,470.555648 338.31312,464.927045 338.738006,460.247325 C339.001922,457.337854 340.172699,455.219744 339.525075,452.091805 C338.752044,448.349717 336.755828,444.867353 334.691293,441.703783 C332.636116,438.552403 330.518236,435.626055 327.46074,433.397304 C326.631557,432.8366 325.801438,432.276834 324.971318,431.718006 C324.3995,430.915393 323.679814,430.681923 322.811324,431.01947 C321.405643,429.949632 321.149214,429.07951 320.110396,427.548358 C317.499311,423.697504 312.869548,421.796925 309.029662,419.510041 C305.341388,417.31317 302.133216,414.292121 298.26619,412.404668 C298.285844,412.414044 294.206374,410.65411 294.548904,411.111674 C293.143223,409.231723 294.575108,406.905458 294.503046,404.878299 C294.428176,402.796756 293.179722,401.879752 292.597609,400.085125 C291.904127,397.950138 293.15071,395.298516 291.894769,393.389497 C291.404371,392.645018 290.445102,392.436864 289.848951,391.780521 C288.834465,390.66474 288.383374,389.161716 287.307121,388.062812 C286.251456,389.308924 285.195792,390.555037 284.141063,391.801149 C282.895417,388.770724 282.648346,387.983113 280.09435,390.861642 C276.195504,395.256322 273.985908,393.360431 270.80862,389.277045 C269.758571,387.927793 268.537257,387.661505 267.751124,386.670429 C266.499862,385.093332 267.844711,382.331069 266.059066,380.954626 C265.018376,380.152013 263.563094,380.964002 262.686181,379.582871 C261.608056,377.885757 263.367496,375.364466 262.374535,373.462011 C277.303577,378.188612 292.537713,381.956954 308.314656,380.808355 C323.640507,379.692574 339.292043,375.933608 353.357274,369.707734 C377.761091,358.904341 401.562207,341.134345 411.153966,315.361663 C413.557287,318.182997 413.05566,323.328719 415.707923,325.917521 C419.648883,329.765561 419.294187,322.074168 419.294187,319.625074 C422.452758,320.470818 426.960857,321.810694 427.217286,325.660609 C427.476522,329.550843 423.979166,333.604225 422.749429,337.14191 C421.513141,340.698347 420.897337,344.811737 421.197752,348.567889 C421.347492,350.445028 421.694701,352.389676 422.633381,354.049284 C423.779825,356.077382 425.053548,355.976117 426.592123,356.902498 C426.339437,356.750601 428.517213,358.222683 428.452638,358.206743 C433.037478,359.308461 436.71733,362.753319 441.642828,361.506269 C444.815436,360.702719 447.881355,358.381143 449.052132,363.024295 C451.257048,361.540962 451.530323,360.394238 451.469491,358.206743 C451.442351,357.259735 450.097502,356.450559 451.445159,356.151455 C451.892506,356.052066 453.563975,358.082038 454.21815,358.269565 C456.026256,358.787137 456.721609,358.060473 457.593843,356.700907 C458.096406,355.916109 458.130098,350.619428 458.731864,350.507849 C460.00933,350.270629 462.676567,355.723895 463.387831,356.700907 C463.387831,341.064023 479.695413,359.186568 484.769715,362.640804 C488.898785,365.450886 493.384423,367.941236 496.846217,371.609251 C501.256049,376.281469 499.980454,378.995913 497.003443,384.045998 C493.708235,389.636158 491.325503,396.148947 488.326967,401.978204 C486.822084,404.902677 485.018657,408.414108 485.060771,411.81396 C485.075745,412.959746 485.736471,414.143975 485.674704,415.256944 C485.58486,416.866857 484.805278,417.550391 484.157654,418.959651 C482.294331,423.017721 483.964864,427.865277 487.903017,429.874622 C490.427065,431.162928 493.022241,431.976792 495.461125,433.465751 C498.037583,435.03816 500.585028,436.735273 503.723009,436.843101 C505.751046,436.912485 506.871285,436.368659 508.829131,436.977182 C510.157134,437.388802 511.266143,438.58522 512.804718,438.434262 C515.880932,438.131407 518.138257,434.735305 521.297763,434.035831 C523.636509,433.519196 526.673416,433.819238 528.165197,431.523916 C530.013546,428.676329 526.492793,425.839055 529.302283,423.217437 C530.076249,424.663265 530.590044,426.311621 530.77441,427.941225 C531.60453,425.752793 531.9377,423.994734 533.161822,422.034146 C534.440224,419.98542 535.165525,418.651171 535.144,416.065182 C535.103758,411.425781 532.860471,407.101423 531.737424,402.687053 C535.666217,402.903646 538.903401,409.675222 540.616984,412.514371 C543.777426,417.752919 547.047365,422.923021 550.190962,428.171883 C554.137537,434.759683 559.151943,442.003826 561.688158,449.279847 C563.977303,455.846082 558.436937,460.069175 555.385991,465.407113 C551.77633,471.723 550.683231,477.769787 548.712283,484.543238 C547.135337,489.960874 546.95565,495.978594 551.378584,500.089171 C553.353276,501.924117 555.863287,502.990204 558.320888,503.986906 C561.252978,505.177699 562.026008,507.356755 565.173348,507.98403 C567.682423,508.483788 570.462901,508.731323 573.030936,508.650686 C577.427666,508.513792 575.830131,507.063276 578.267144,504.287886 C577.505343,506.894502 580.080865,509.367975 580.794936,511.75706 C581.797256,515.10253 582.026545,518.796799 582.438329,522.254785 C583.343317,529.837412 582.886612,537.397537 581.933893,544.95016 M523.081537,614.391163 C519.131218,613.495725 513.245514,614.033926 509.693877,612.069587 C507.231596,610.708146 508.348092,609.395462 509.368194,606.8226 C512.134633,599.849433 519.842481,599.074012 526.665929,600.972716 C525.47082,605.446157 524.276646,609.91866 523.081537,614.391163 M530.192298,666.760706 C542.718954,673.548222 556.384568,680.823307 566.463917,691.019114 C568.831675,693.414763 575.234916,698.738635 574.3814,702.658873 C573.489513,706.752573 565.441944,705.959337 562.466805,705.850572 C548.068403,705.323623 534.581541,701.712803 521.681471,695.384727 C509.345733,689.333252 497.454534,683.141132 488.479514,672.457757 C484.842713,668.130586 478.184914,661.453711 478.939228,655.276593 C479.689798,649.143544 485.986349,644.496642 489.324607,639.685654 C492.59829,634.968428 496.659978,624.648854 502.772163,623.08676 C505.436592,622.406039 508.114124,623.909063 510.598866,624.664794 C512.971304,625.385833 516.562247,625.381144 518.591219,626.97043 C522.266392,629.848022 520.7952,636.484579 516.934725,638.340152 C514.365754,639.575013 511.376576,640.107588 508.681263,641.003026 C505.651843,642.009105 490.357811,646.618502 496.054468,651.838298 C500.018825,655.470683 507.077177,651.034748 511.325103,650.023043 C513.506623,649.504533 517.012402,648.833188 518.308586,651.321663 C519.570142,653.746378 517.281933,656.265795 515.291332,657.392828 C512.333974,659.067438 508.551177,658.806777 505.985014,661.268998 C503.890531,663.278342 503.34866,665.665553 506.222725,666.87791 C513.861319,670.102426 522.22147,662.441975 530.192298,666.760706 M373.026511,550.650961 C372.585715,548.937908 373.712506,547.966521 375.492536,548.715689 C375.101341,549.833346 374.279645,550.478436 373.026511,550.650961 M248.812804,587.72398 C247.201231,587.505512 247.851662,585.472727 248.51426,584.462897 C249.583027,585.296452 249.682229,586.383167 248.812804,587.72398 M136.654073,517.192511 C134.605447,514.909378 137.699442,510.954448 140.775656,512.804395 C139.773336,514.311169 137.755595,515.440078 136.654073,517.192511 M129.225115,421.56908 C125.910254,415.665751 125.676285,402.843638 117.060641,402.062591 C113.893648,401.775675 108.257822,405.745608 105.539112,403.870344 C103.074023,402.170418 105.222787,393.60609 101.633715,393.735483 C96.5762589,393.916446 99.1733057,403.828151 96.8907121,406.284746 C95.5842338,407.689318 92.6362347,408.252835 90.8131546,408.009051 C88.0420355,407.639624 87.8033879,406.38601 87.7331975,403.786895 C87.6798527,401.862875 89.0743031,394.160231 84.7486994,395.43916 C81.5985518,396.370229 82.3594163,403.135241 82.0477707,405.535578 C80.8900961,414.470271 67.8945674,414.052087 61.0851575,414.809693 C56.9532794,415.268195 37.587265,418.355817 41.8904078,409.814929 C43.7097444,406.203172 48.1719856,403.199 51.2088926,400.684272 C56.3777176,396.403046 62.2830746,393.028509 68.4448606,390.406891 C79.9046221,385.532144 92.8168581,382.937717 105.243376,384.638581 C119.233738,386.552287 130.754331,393.456069 140.094341,403.870344 C142.02411,406.023147 147.473697,410.999158 145.386701,414.065214 C144.227155,415.770766 140.211325,416.193638 138.413513,416.828415 C135.158548,417.978889 131.985939,419.465972 129.225115,421.56908 M149.818994,425.881249 C154.573228,424.081933 155.652289,430.012454 157.482856,433.217279 C159.050443,435.961727 162.525338,440.128562 160.701322,443.35214 C159.043892,446.285052 153.974269,448.03186 151.120793,449.268596 C147.385725,450.888823 143.481264,452.092743 139.753683,453.726097 C137.800517,449.073569 136.108459,444.303836 134.047667,439.701002 C132.885313,437.1047 130.501645,433.533261 132.546527,430.937896 C135.932515,426.644481 145.098452,427.668375 149.818994,425.881249 M281.677846,250.318152 C282.044708,244.987716 285.535514,246.733586 286.88317,250.400664 C288.346875,254.383723 288.513461,259.117826 288.629509,263.318416 C288.717481,266.521366 288.059562,271.529256 285.002066,266.860788 C282.064362,262.377033 281.319407,255.514507 281.677846,250.318152 M300.468299,271.805858 C299.941402,278.258639 296.261551,273.79645 294.91483,270.355342 C292.950433,265.334324 291.448357,258.844037 292.166172,253.43484 C292.995355,247.193026 296.040685,251.112326 297.399572,254.930363 C299.320919,260.331121 299.404211,266.215698 300.468299,271.805858 M308.455972,266.541993 C304.312864,267.665276 297.85347,243.225906 303.449053,242.391414 C308.100341,241.698504 312.540121,265.435588 308.455972,266.541993 M325.044317,269.089539 C325.005946,274.5128 320.535282,270.2372 318.971438,268.04783 C316.10486,264.038517 313.846599,258.053614 313.683758,253.13011 C313.532146,248.507585 315.555503,244.753308 318.791751,249.731195 C322.387374,255.261347 323.880091,262.708955 325.044317,269.089539 M288.849439,206.481995 C292.883986,195.155404 297.919917,184.742067 304.647906,174.773167 C305.855182,172.984165 307.066201,170.945754 308.709594,169.522429 C310.040405,168.369142 311.958944,168.080351 313.211142,166.956131 C315.732383,164.696439 313.805421,162.429245 311.351563,161.245016 C307.229979,159.254424 299.895545,159.543215 302.773353,152.928223 C306.749877,143.789127 317.056643,148.88328 321.113651,155.09509 C322.756108,151.216108 325.641403,152.162178 329.159349,151.896828 C334.418018,151.499273 339.364105,148.977981 344.675183,149.067056 C349.599745,149.149568 354.134049,151.546154 359.069841,151.633354 C364.566222,151.731805 369.156678,151.95965 374.503318,153.500179 C371.718161,159.144721 368.260111,164.726443 362.959328,168.323198 C363.912983,166.559513 367.217549,161.824473 364.25364,160.516477 C362.249001,159.63229 357.967383,163.335935 356.263159,164.191055 C356.19484,162.577391 355.604305,160.948725 354.63942,159.656668 C349.432224,163.300305 351.186049,169.554308 355.628637,172.980415 C351.74383,175.006637 347.682142,176.786262 343.320975,177.444479 C339.017832,178.095196 334.692229,177.080678 330.412483,177.809218 C322.901168,179.086272 317.289675,185.820343 316.09363,193.209819 C315.44507,197.220069 317.63314,207.308986 320.890913,199.487263 C321.542281,197.925168 321.876387,196.082722 322.907719,194.710029 C324.609136,192.445649 325.914678,193.243573 328.407843,193.785524 C330.476122,194.235588 334.098885,194.687526 334.883147,196.97816 C335.585987,199.033449 333.750741,201.794774 332.711922,203.358744 C329.14999,208.726685 323.82581,213.367025 317.391685,214.583133 C313.749269,215.271355 285.978181,214.548441 288.849439,206.481995 M297.51562,132.974483 C295.180618,131.407701 296.933507,127.32619 297.211462,125.239022 C297.625117,126.003192 298.038773,126.766424 298.453365,127.530594 C298.163244,122.638969 298.830521,118.686851 299.873084,113.938684 C300.268958,112.135619 300.125769,110.602591 300.20719,108.796712 C300.253984,107.763442 300.061194,107.030214 300.487952,106.408564 C301.035438,105.61064 301.689613,107.932216 301.659665,107.727812 C304.150958,104.722703 302.128537,104.086051 302.856646,101.062188 C302.866005,101.023746 305.148598,98.5821526 305.401284,98.1217754 C306.60388,95.9249043 306.846271,95.0782229 308.924845,93.8030438 C311.033366,92.5100497 310.323039,93.7889793 311.467611,91.0239035 C312.570069,88.3610295 312.498943,86.5223337 313.137208,83.733817 C314.121746,84.4529805 315.115643,84.4736084 316.12077,83.797576 C315.189577,83.5397273 314.691692,82.929329 314.628989,81.9635684 C317.19796,81.7010315 319.473066,79.2078688 321.80994,80.0676771 C321.220341,79.0578478 320.815108,73.2726602 322.734583,73.2839118 C322.798222,74.1906016 322.798222,75.0963539 322.735519,76.0021061 C324.357386,73.5548874 326.900152,69.9346914 328.899176,68.0856817 C330.407803,66.6895481 329.981981,67.0974179 331.826586,66.9005152 C333.413826,66.7317415 333.436287,67.3290129 334.797982,65.9028751 C334.261727,64.4326686 334.664152,63.499725 336.004322,63.1068574 C336.417042,62.9268321 336.830698,62.7468068 337.243418,62.5658439 C339.144175,61.4106816 339.847015,60.103623 341.34254,58.5734081 C342.50583,57.3816782 344.968111,56.8734819 345.843152,55.6836272 C346.78464,54.4046976 346.088351,51.5533596 347.340548,50.5819732 C348.712538,49.5168236 348.803317,50.9045185 350.139744,50.7779382 C350.331598,50.7601232 352.265111,49.7277907 352.659113,49.5955846 C355.516333,48.629824 358.159237,48.2416445 360.573789,46.0410229 C361.384255,45.3021691 361.957009,43.8872829 362.739398,43.3162652 C364.034646,42.3701948 365.583515,42.5558459 366.905904,41.7232289 C367.32611,41.4588168 367.960632,40.2802137 368.456645,39.8460903 C369.917542,38.5652854 371.921246,37.9295711 373.731223,37.3660544 C377.479394,36.1996406 381.00857,35.0416655 384.634141,33.47207 C392.41873,30.0994088 401.004426,27.2415074 409.264439,25.2940464 C410.215286,25.0699524 412.659785,25.2002832 413.367305,24.739906 C413.889522,24.3986081 414.344356,23.2387577 414.472571,23.1646848 C416.017697,22.265496 418.505246,21.2566043 420.624062,20.6527695 C426.842001,18.8787703 427.060059,22.2664336 423.095702,25.8547501 C419.577757,29.039885 415.328894,31.2630097 411.71549,34.3074998 C405.825107,39.2722597 401.999259,46.5951632 398.111644,53.1070153 C403.331006,55.6395585 410.812373,53.0741982 416.11222,51.9743562 C418.805662,51.4164654 421.664753,51.3573946 424.318888,51.3583322 L425.171468,50.8707637 C425.850911,50.4113242 426.291708,50.5988505 426.495728,51.4342804 C426.593994,52.5059934 427.116211,52.67758 428.063315,51.9481026 C428.564942,51.6021165 429.088095,51.2945733 429.633709,51.025473 C430.606081,50.4713326 432.096926,48.6945206 433.343509,48.9139264 C435.180627,49.2374093 434.078169,50.1365981 435.263919,50.5922871 C437.991052,51.6377465 439.314377,49.1492719 441.858079,48.7507785 C442.732184,48.6138843 443.973151,49.2908543 444.933356,49.1867772 C445.725105,48.897049 446.459765,48.5032437 447.135465,48.0062989 C447.814908,47.9903592 448.290332,48.316655 448.563607,48.9823735 C450.637501,48.996438 454.463348,48.5013684 454.646779,45.8769373 C456.106741,48.6401379 456.947155,47.6996933 459.229748,46.4151379 C459.229748,49.7240402 466.377944,46.903644 468.336726,46.8970806 C473.377336,46.8811409 477.731952,44.8886735 482.51239,47.4568467 C474.061459,51.239253 464.488417,52.9166761 456.30421,57.2100916 C452.604705,59.1519269 447.840177,64.6426981 450.586028,69.1020744 C452.216318,71.7490087 455.243866,71.5989876 457.920462,71.2820681 C461.320488,70.8798241 464.145888,72.1559409 467.624527,72.0143585 C474.681007,71.7283808 483.353739,77.094447 489.444399,71.3608292 C492.106021,74.986651 495.247746,74.9725865 499.241115,75.1948052 C501.095079,75.2979447 512.659658,77.3110399 512.184235,79.5529173 C511.917511,80.8140319 506.388375,82.7952477 505.555448,83.1656122 C502.420274,84.55612 499.175604,85.6475233 495.853256,86.488579 C489.859927,88.0084799 483.962057,87.9147168 477.917255,88.8532861 C473.520525,89.535882 468.080297,92.0431091 469.281957,97.6201424 C470.340429,102.53052 476.157814,101.424114 479.929381,101.080941 C484.0519,100.705888 488.019065,100.232384 492.165917,100.415223 C495.494816,100.562431 502.37816,100.354276 504.473579,103.632237 C495.236515,110.287547 483.653219,112.013727 472.64174,113.396733 C459.910128,114.994458 447.276782,117.013179 434.81938,120.137368 C435.757124,118.256478 439.888066,111.409892 438.257776,109.366792 C436.26156,106.863316 430.270102,116.959734 428.730592,118.317424 C415.623694,129.880299 397.678335,137.725463 381.615951,144.137926 C386.904568,137.592319 394.87446,133.123567 401.33479,127.816571 C405.782057,124.164496 413.870805,118.199283 410.928421,111.41833 C394.397165,121.735092 380.491032,140.31989 359.636044,141.536936 C367.087463,136.106173 375.672223,131.929961 381.800318,124.842403 C383.234075,123.185608 387.961168,116.854719 385.029079,114.579087 C382.721217,112.78821 378.639876,119.097534 377.031111,120.464601 C365.71173,130.076264 350.162205,138.213969 336.063282,142.719289 C330.996467,144.337642 324.033574,147.089591 319.380415,143.555657 C313.137208,138.814053 308.273477,138.661219 301.231035,142.444563 C300.530066,139.359755 300.438351,134.936946 297.51562,132.974483 M446.48129,351.118248 L446.48129,355.03286 C444.36341,354.823768 445.312385,352.588454 444.039598,351.56081 C444.853807,351.413602 445.667081,351.265456 446.48129,351.118248 M443.81686,346.583861 C444.461677,348.866056 444.461677,348.866056 441.75794,348.608208 C442.699428,347.682765 443.201056,347.188633 443.81686,346.583861 M454.029103,349.780247 C455.574229,348.930753 454.257456,354.021155 451.803598,351.387348 C452.545745,350.851023 453.287892,350.315635 454.029103,349.780247 M459.493664,342.427339 C459.205415,344.107575 458.918103,345.787811 458.629854,347.46711 C457.727672,346.720755 456.826427,345.9744 455.924246,345.227108 C457.114676,344.294164 458.30417,343.361221 459.493664,342.427339 M576.859591,498.518638 C578.798719,497.346599 579.19085,501.830353 579.398614,502.681723 C578.123955,501.978499 573.809582,500.362022 576.859591,498.518638 M192.367512,157.711083 C189.007729,162.349547 185.656369,167.026453 182.892736,172.053097 C181.357905,174.846302 180.23673,178.927813 177.447829,180.795575 C174.964958,182.457996 170.875195,182.712094 168.089102,183.407817 C162.499134,184.801137 156.955024,186.388548 151.518539,188.300379 C132.964862,194.827233 115.34893,205.930668 102.307543,220.789317 C96.0250298,227.947198 90.7785273,236.192731 87.8267848,245.29901 C84.442669,255.736726 85.5844337,266.679825 84.3434665,277.424147 C84.0458589,280.005447 83.5039886,289.20924 80.4586588,290.372841 C76.7104885,291.805542 75.6492088,282.734893 75.1971823,280.360809 C74.6300434,277.381016 73.0568414,256.990339 67.1804965,258.875917 C63.5970399,260.025453 63.5745789,271.917436 63.3555847,274.752834 C62.8567645,281.192489 62.1230403,287.583386 60.8989188,293.932091 C59.9433927,298.879035 58.6752852,303.785662 57.4895344,308.682912 C56.4479081,312.986642 55.3173738,318.152055 52.0633444,321.394385 C49.6721896,308.281606 49.2828665,293.550474 53.764761,280.839939 C54.9907543,277.362263 62.6948586,259.52382 55.8817051,257.796703 C51.8134664,256.76437 48.5865772,266.482923 47.485055,269.050158 C43.7949088,277.646366 40.8656272,286.56043 37.6799164,295.34979 C35.5882409,301.120913 33.4684892,311.528625 28.3417784,315.539813 C26.4737764,301.05059 30.4259669,286.607312 35.234481,273.076349 C36.0936122,270.660072 46.7737917,246.575126 37.5245616,249.184556 C32.4755282,250.609756 28.9426087,261.38877 26.866843,265.552792 C21.7813106,275.753287 15.5315525,286.357902 7.0244694,294.069922 C6.62391587,285.995976 11.785254,277.447588 13.7037931,269.692436 C15.9096451,260.778371 18.8211451,252.486894 23.5360719,244.562031 C32.2658927,229.88997 43.6657584,216.012084 54.9243073,203.220912 C66.5478466,190.016245 79.7988685,178.258344 94.2412564,168.221934 C108.739797,158.147081 123.985163,151.755246 141.141582,147.829382 C160.351306,143.434702 181.195999,140.837463 200.430055,146.500758 C197.743165,150.238158 195.067505,153.983997 192.367512,157.711083 M510.100046,176.889401 C509.790272,176.951285 509.481434,177.013169 509.17166,177.075052 C508.918039,175.570153 508.664417,174.065255 508.40986,172.560356 C510.328399,173.686451 508.69998,175.612347 510.100046,176.889401 M429.689861,163.8882 C452.404428,153.876169 476.344989,146.483881 500.569118,141.162821 C517.033927,137.545438 535.702716,135.764875 551.748254,142.107016 C570.272919,149.428044 577.952691,169.062052 578.765964,187.830626 C579.714939,209.707448 572.282238,230.454425 561.570238,249.207996 C558.99846,253.711441 545.251426,280.927139 539.474283,277.896713 C541.424642,272.564402 555.088384,242.495491 546.038495,239.833555 C540.832235,238.30334 536.796751,253.101043 535.003619,256.430573 C533.788857,258.68839 525.488601,274.492173 522.719354,273.13917 C525.334182,264.712674 528.525508,256.020828 528.273759,247.058944 C528.084712,240.290181 524.552729,237.104109 520.823276,244.115719 C512.681183,259.424431 504.11514,275.126949 492.266055,287.925622 C491.147687,278.434914 496.226669,267.955942 499.315049,259.197524 C501.738959,252.322809 504.982694,245.473409 505.756661,238.145818 C506.174996,234.176823 506.053332,226.334471 500.13113,227.710914 C494.975407,228.909208 490.815453,234.813475 486.735983,237.869216 C489.82062,232.047461 492.792952,226.14882 496.330551,220.583976 C499.362778,215.814243 502.995836,211.463632 506.004667,206.681711 C507.344837,204.552349 508.089791,202.482996 508.939564,200.234555 C509.77717,198.016119 511.037791,196.783133 512.464996,194.764412 C513.526276,193.262326 514.106517,191.989022 514.428457,190.33504 C514.548249,189.718078 514.122427,188.797324 514.187938,188.098788 C514.303986,186.872366 515.58894,186.54607 515.161246,185.137747 C517.416699,188.2685 516.793408,182.114823 516.751294,180.973725 C516.60249,176.959724 518.22155,172.613801 516.217846,168.881089 C511.996124,161.012484 499.612656,162.538948 492.29226,163.105278 C481.80487,163.916329 468.681127,166.303539 459.699556,171.982775 C457.402925,173.434228 455.960745,172.605362 453.469452,173.720206 C451.190601,174.740349 448.873381,175.797998 446.534635,176.791888 C440.458949,179.37225 434.65841,182.572387 428.666017,185.336525 C428.984213,180.846207 430.002443,176.465592 429.293987,171.979024 C428.9917,170.055941 427.080648,165.037737 429.689861,163.8882 M589.445208,512.247442 C587.457414,498.949949 585.207576,485.795914 581.661554,472.816278 C579.966689,466.614782 578.629327,460.288581 576.852104,454.116152 C575.440808,449.2114 571.124563,446.723863 568.992645,442.154784 C563.976367,431.40765 559.377489,420.762717 553.331751,410.476897 C547.013674,399.729763 539.471476,390.259683 530.503943,381.617531 C512.314321,364.089445 491.302106,350.697251 470.962785,335.946429 C460.521253,328.373178 449.696949,321.776939 438.043461,316.228035 C433.347252,313.990845 428.834474,312.204657 423.86499,310.749453 C418.715818,309.241741 416.144975,307.479931 414.238603,302.307017 C410.325719,291.68365 402.985669,288.205974 392.9606,284.168532 C388.427233,282.342963 384.301906,279.813232 379.834049,277.871397 C375.187441,275.852676 370.272238,274.305584 365.949442,271.608018 C346.283948,259.339107 372.538922,233.799895 382.980454,224.604541 C387.049628,221.02185 391.653186,217.345396 396.835113,215.565771 C402.204215,213.722387 409.52274,212.637547 415.207231,212.132164 C419.064898,211.789928 424.527587,213.589243 427.732952,210.523188 C430.316896,208.052528 429.31832,204.09666 429.001059,200.972471 C428.111044,192.206553 435.307905,191.521144 442.555304,189.972176 C453.877492,187.552149 464.462213,182.461746 475.801247,179.917014 C483.037414,178.292098 503.12873,173.42954 503.24665,185.643131 C503.335558,194.902244 496.411036,204.214802 492.058292,211.782427 C488.653587,217.698883 485.023336,223.418437 481.42397,229.20925 C478.731464,233.540171 476.29258,238.292088 476.333758,243.525011 C476.366514,247.659966 478.026752,251.743352 482.878316,251.132017 C488.330711,250.444733 492.414859,245.045849 496.942611,242.43267 C497.12885,248.088464 492.85004,254.413727 491.207583,259.739475 C489.270327,266.018795 487.567038,272.547524 486.473003,279.032185 C485.774842,283.169954 483.854431,299.105005 492.22862,297.060968 C497.873805,295.682649 502.737535,288.404752 506.026192,284.106648 C509.488921,279.578825 512.595083,274.81378 515.732128,270.058112 C517.689974,275.877992 505.50959,287.136136 511.69103,292.38031 C518.287997,297.977971 529.712195,278.160188 532.925046,274.499674 C533.483762,278.945923 527.208735,288.793869 534.30733,290.833218 C539.330159,292.277171 546.178876,285.429646 549.342125,282.207006 C555.123947,276.317742 555.829595,268.002824 559.436449,260.87401 C563.565519,252.712864 568.860687,245.274631 572.686535,236.925021 C584.742447,210.614138 590.871478,171.633976 571.862031,146.814865 C559.028408,130.057511 536.765868,127.157416 517.079785,128.707321 C494.676864,130.471007 472.765275,137.291339 451.807342,145.109313 C437.734623,150.359112 423.891194,156.237126 410.126378,162.242657 C399.969351,166.674842 389.860054,171.221418 379.782576,175.834566 C374.90668,178.066129 370.157125,180.480531 365.414123,182.978381 C361.501239,185.039296 356.849951,187.434945 352.293187,186.260092 C355.571549,181.278455 362.09271,179.627286 366.804829,176.436525 C372.379823,172.66162 375.467267,166.211652 377.508406,159.970775 C379.706771,153.248893 381.654322,151.643668 388.406644,149.888421 C395.156158,148.134112 401.473299,145.305278 407.504063,141.806974 C421.646971,133.602696 437.276046,128.912663 453.34966,126.368868 C467.572118,124.118552 482.609721,123.104972 495.889755,117.085376 C505.775378,112.604435 518.215934,102.688042 506.180611,92.725705 C514.697989,86.5288971 529.802975,76.1793185 516.578157,66.0435198 C506.327543,58.1871039 490.844465,58.7956268 478.621967,58.7956268 C480.379536,55.2448156 486.00881,54.0240191 489.172996,52.0934355 C493.075585,49.711851 497.89533,47.1343014 499.250474,42.4395795 C501.468492,34.7631888 493.089623,32.525062 487.24697,31.7552664 C465.034967,28.8298555 440.074305,31.0286018 419.034015,38.7603128 C420.131793,34.8888315 425.601969,32.0365559 428.665081,29.9597017 C432.746422,27.1927505 436.782841,24.1660754 439.761724,20.1689515 C441.333054,18.0602178 442.504767,15.7808352 442.817348,13.1460901 C443.153326,10.3060037 442.850104,11.5061723 441.994716,10.753254 C438.841761,7.97223841 434.403852,6.22168003 430.121299,6.03509133 C417.778073,5.4959531 406.809645,11.3045815 395.09907,14.1559194 C389.920886,15.4160964 385.088975,15.9336691 380.130721,18.1699207 C374.152366,20.8665495 367.992452,23.2228179 362.077736,26.0422764 C359.330014,27.3530856 356.744198,28.9189305 353.970271,30.1641054 C351.453709,31.2930139 350.87066,32.7097754 348.840752,34.4265791 C346.979302,36.0018003 344.912895,35.2226284 342.801566,36.4012314 C339.881643,38.0298977 337.100229,40.8709217 334.387134,42.8971438 C323.823939,50.7873145 313.846599,59.846712 305.471474,70.060334 C291.012241,87.6915604 276.646594,115.007585 286.513501,138.115518 C288.817619,143.510651 294.25504,145.246207 295.60644,151.133596 C296.789383,156.293383 296.976558,161.415665 298.498287,166.508881 C300.039669,171.669606 293.860101,176.50966 291.221876,180.711188 C287.094677,187.283986 285.296866,194.721281 282.973094,202.039496 C282.249664,200.07047 282.002594,196.750316 279.97643,195.590465 C277.5207,194.186831 277.48888,197.115992 275.723824,195.795807 C273.648994,194.244026 271.966295,188.18505 270.759955,185.771586 C269.152126,182.552697 267.498438,179.353497 265.646346,176.266814 C258.088238,163.662231 246.442238,153.923051 233.803277,146.651717 C207.992843,131.804319 176.915317,130.214095 148.159692,135.608291 C119.281467,141.024989 94.2038215,155.406384 71.8710906,174.150579 C59.5025967,184.5311 48.5931283,196.03209 38.7758234,208.858892 C29.1325908,221.458786 19.1702256,233.731448 12.0772463,248.015329 C8.09417193,256.03583 4.48731844,264.348873 2.25900548,273.047282 C0.529512677,279.797293 -1.15131474,287.993131 1.04892204,294.83878 C2.93189797,300.698041 8.37399787,303.844733 13.8666349,300.037011 C18.6854436,296.695291 20.8360791,290.658818 24.1266076,286.034419 C24.7873338,293.696745 15.4669773,321.906332 29.0474264,323.234019 C39.0753027,324.215719 42.7523466,301.122788 44.8767777,294.434661 C46.3002401,303.434988 43.6124137,313.157291 46.9918501,321.849137 C48.6305632,326.066604 53.749787,333.701739 58.0838136,327.642763 C60.0238778,324.930194 60.1670663,321.061526 60.8614839,317.90452 C61.7346531,313.927086 62.8296242,309.999347 63.6953065,306.018163 C65.8768258,295.984566 67.0925245,285.797198 68.7780313,275.675464 C71.6127898,282.250137 71.0784064,294.224632 78.1058747,298.297704 C85.2325456,302.427971 88.4369738,290.617562 89.2502472,285.837516 C90.6166214,277.801075 89.9633822,269.567731 91.1407101,261.501285 C92.3348837,253.32795 95.2426402,245.959102 99.6431138,238.989686 C115.300265,214.198704 144.662335,195.469511 174.206902,194.232775 C172.614046,200.363011 163.519235,216.159292 175.394524,216.419016 C178.072056,216.478087 180.525914,215.998019 183.239945,216.289623 C186.578203,216.647798 190.549111,218.358976 193.885497,218.118005 C195.908854,217.970796 195.831177,217.12599 197.906007,218.33741 C200.080039,219.606026 200.366416,221.485978 202.743533,218.524937 C204.534793,221.854467 208.711593,222.741466 211.872035,224.193858 C211.90947,223.33405 211.946905,222.474241 211.98434,221.613495 C213.943122,224.40295 216.066617,224.903645 219.068897,226.268837 C220.991179,227.141772 222.345387,226.872672 224.076752,227.323673 C226.173106,227.869374 227.22222,229.028287 229.109875,230.100938 C231.157565,231.264539 234.747572,231.122019 236.319839,232.94665 C239.101252,236.173978 234.801853,241.622556 233.252048,244.381068 C228.894624,252.135282 226.022431,261.119669 224.13384,269.77401 C223.651865,271.981195 223.191416,273.541414 223.546112,275.730784 C223.85495,277.636052 224.42396,276.259608 224.073008,278.136747 C223.948537,278.80059 222.714121,280.197661 222.494191,280.675854 C220.627125,284.730173 220.904143,290.104678 220.805876,294.477792 C220.570036,304.93051 221.896168,314.815961 224.742157,324.867373 C225.990611,329.27518 227.092133,333.87145 228.667207,338.172367 C230.130912,342.167615 232.347059,344.609208 231.567477,348.928878 C229.895072,358.193616 239.583227,360.706469 244.870908,366.51041 C247.265806,369.140466 247.6935,372.498126 248.232563,375.884851 C249.007465,380.768037 250.61623,385.254605 252.602152,389.780553 C256.079855,397.710104 260.848127,408.063433 267.38707,413.918006 C270.328518,416.550876 273.02851,419.465035 276.37332,421.430311 C277.937163,422.34919 279.892201,424.596693 281.634796,425.029879 C283.28474,425.438686 282.69514,423.68344 284.487336,425.134894 C285.859326,426.245987 285.785392,427.900907 287.690828,429.161084 C289.518588,430.369691 291.487664,431.380458 293.411818,432.424042 C297.321895,434.544965 301.545488,436.552435 305.104612,439.232186 C308.551432,441.829426 311.983277,444.56356 315.446006,447.184241 C318.632653,449.596767 320.87126,452.598126 321.90072,456.507113 C326.425665,473.677962 310.561686,488.18875 297.030838,495.369133 C279.518788,504.662001 259.669863,502.700476 241.657121,495.937338 C222.983652,488.925728 204.546024,476.062359 193.42224,459.286253 C190.657672,455.116605 187.854734,450.650665 185.758379,446.100338 C184.378902,443.107418 183.983028,439.426276 182.128128,436.678077 C177.967238,430.515962 169.03059,439.350328 164.70405,441.663465 C158.333564,414.738433 146.101708,384.338539 117.663343,374.70156 C90.7064651,365.567152 56.9298826,376.420239 39.4150245,398.652424 C35.2868899,403.89191 29.3787254,412.383103 32.1592032,419.399401 C34.5784342,425.501508 42.5408394,426.881702 48.2824186,427.493975 C56.4675614,428.367848 65.0822699,427.3177 72.9819716,425.095513 C75.0109436,424.524495 78.4867749,422.897704 80.6392822,423.525918 C83.9831555,424.50293 83.8568127,429.371114 85.5451271,431.90647 C87.2530948,434.47183 89.7312858,434.201792 90.3087192,430.909767 C90.8590124,427.765888 87.9690374,424.811411 90.4144729,422.019144 C91.7752318,420.465488 96.3684951,419.180932 98.2804831,420.391415 C99.8798896,421.404057 100.023078,424.582629 101.293993,426.045334 C104.797901,430.07715 105.178801,423.541857 105.896615,420.78522 C106.974741,416.639951 111.685924,413.416373 116.258598,415.271008 C119.120497,416.431796 119.835504,420.830227 120.576715,423.488412 C122.090957,428.9173 123.133519,434.158661 125.184016,439.448779 C126.748796,443.485284 133.38039,454.725612 130.200294,458.662728 C128.235897,461.094944 123.276708,462.457323 120.426039,463.394955 C116.45326,464.702951 111.68686,465.484936 108.0407,467.5421 C106.326181,468.509736 102.544319,471.149169 102.014615,473.149138 C101.118049,476.537739 105.236825,476.689635 107.153492,474.970956 C113.148693,492.771894 120.22857,510.281228 131.240985,525.625571 C142.290834,541.023358 156.637763,553.790152 171.758659,565.060485 C201.331301,587.104206 236.115818,601.789393 272.956448,605.28676 C291.79931,607.075761 311.282308,605.502415 329.117235,598.961496 C331.129361,598.22358 333.169564,597.366585 335.296802,597.019661 C337.223764,596.705554 339.201263,597.37221 341.066458,597.062792 C343.485689,596.661486 342.837129,595.726667 344.373832,594.431797 C345.793551,593.237255 348.009697,592.823759 349.581964,591.792364 C357.414282,586.65133 364.518492,579.422189 370.640972,572.381513 C382.143783,559.157155 393.543649,542.66984 398.962352,525.860916 C404.40726,508.973232 404.665561,491.029774 406.304274,473.52044 C407.317824,462.689856 404.058179,452.62813 402.280021,442.043206 C400.459749,431.203246 398.33251,420.544249 395.82905,409.857123 C394.837961,405.631217 394.830474,402.572662 398.143464,399.496293 C400.723665,397.101581 403.948682,395.216942 407.380527,396.849358 C410.974279,398.558661 414.23018,402.289497 417.512285,404.607323 C420.89453,406.997346 422.479898,410.185294 425.84904,406.205047 C425.84904,409.66022 427.513021,410.699116 430.419842,411.834588 C434.319624,413.359177 437.961105,414.989719 441.489345,417.308482 C449.118579,422.322936 454.884491,429.91119 459.190441,437.879184 C463.780897,446.375064 469.065771,455.069723 472.255225,464.206944 C475.731056,474.166468 476.167173,485.39367 476.517189,495.854827 C476.884987,506.78855 476.992612,517.801972 476.369321,528.728194 C475.780657,539.061833 475.203224,550.668776 472.15883,560.598295 C468.801854,571.547958 457.930757,583.956576 472.635189,591.260727 C482.947571,596.383947 495.446151,595.148148 505.592883,600.420451 C504.282661,602.516995 503.403877,604.889204 501.978543,606.915426 C500.182603,609.470472 498.585068,609.447031 495.812077,610.470925 C490.731224,612.347126 493.190698,615.400993 492.668481,619.423433 C492.205224,622.992996 487.432273,627.062318 485.155294,629.684874 C481.726257,633.634179 478.181171,637.546916 475.415667,642.010043 C469.41953,651.682651 469.422338,662.223507 474.914975,672.108958 C479.744078,680.798928 486.64146,690.680629 495.123275,696.074824 C504.381864,701.963151 515.295076,707.04699 525.456782,711.135064 C534.594643,714.81058 544.262208,717.162161 554.034591,718.347327 C561.360603,719.235264 571.441824,720.09601 577.305067,714.57711 C582.679784,709.517649 583.954442,701.471832 581.435073,694.749012 C575.527844,678.988361 557.48609,669.503279 544.36609,660.577963 C548.524173,659.124634 554.001836,658.634252 557.231532,655.323475 C561.268887,651.184769 557.539435,647.633957 552.903121,647.680839 C548.881676,647.723032 544.781618,649.032904 540.957642,650.195567 C537.560424,651.226962 531.319088,654.115805 527.876013,652.035201 C523.325799,649.284189 528.304642,646.510675 530.760372,645.268313 C535.371417,642.935485 535.115924,639.967881 530.652747,637.537539 C523.444655,633.611675 533.774818,633.441026 534.852944,629.902404 C536.21651,625.428026 530.539506,621.122421 530.936316,616.240173 C531.313473,611.579206 532.75191,603.394619 536.386839,600.061338 C538.89685,597.761328 543.192506,597.964794 546.340782,597.454722 C551.435673,596.629606 556.422938,595.11158 561.334399,593.546673 C562.829923,602.33322 569.816213,594.43461 572.572358,590.92693 C577.76458,584.320377 579.913344,576.324254 582.652643,568.519408 C585.73728,559.728173 588.360531,551.097273 589.993629,541.904732 C591.773659,531.884262 590.939796,522.244471 589.445208,512.247442" id="react-path-300"></path><path d="M244.786439,617.549599 C243.358189,619.160718 236.51979,616.932535 234.642876,616.698088 C229.07102,616.00225 223.847814,616.180429 218.333911,614.787815 C214.110854,613.720613 207.922084,611.366766 203.807455,611.996021 C203.461609,612.049475 203.865407,613.198265 203.276535,613.190763 C202.511935,613.180447 202.103463,612.618712 201.337929,612.324247 C199.524575,611.626533 198.094456,610.054801 196.188566,611.425846 C195.287497,607.168291 193.733061,610.89881 191.594426,610.867863 C189.33895,610.834102 190.164307,608.148279 187.800404,607.801298 C185.922555,607.526526 185.139261,608.692196 183.063252,607.88945 C180.187124,606.780047 178.147568,605.165177 174.99009,604.393378 C171.419466,603.521235 169.059303,602.270226 165.772833,600.811029 C162.899509,599.537514 159.714924,599.133327 156.801407,597.933897 C149.262904,594.82982 141.880499,590.988642 134.719623,587.103388 C121.097973,579.713622 107.649247,572.760865 95.4063066,563.12416 C90.9252672,559.598079 87.7649847,555.688443 84.2139899,551.296784 C81.8033515,548.313681 77.6550718,542.591302 73.148795,543.540343 C74.2031572,540.619134 71.3915246,538.082419 69.5407824,536.279054 C66.6824139,533.4957 64.243734,530.555736 61.8788967,527.321307 C59.6533325,524.278186 58.0904835,521.205056 56.7099047,517.726802 C55.6630202,515.089744 54.9872189,512.455498 52.1157643,515.093495 C46.3962232,520.348856 53.73937,530.718911 56.9118038,535.336577 C62.1593122,542.973919 67.3815832,550.736924 73.6273707,557.598716 C85.2739605,570.396703 98.54696,582.047776 113.482823,590.805774 C121.200792,595.331536 129.331906,599.333076 137.705113,602.486855 C145.184728,605.303969 152.571807,606.783798 160.247713,608.798166 C164.82129,609.999472 169.172404,611.587146 173.839452,612.423652 C175.65374,612.749065 177.439052,613.188887 179.284186,613.282666 C179.761827,613.307986 180.550729,612.678731 180.854513,612.705926 C181.589201,612.773447 182.150032,613.445841 183.223089,613.681226 C184.502718,613.961624 185.771131,613.840649 186.768475,614.268281 C187.174143,614.442709 188.175226,615.704971 189.236131,616.096966 C190.962556,616.7356 192.298268,617.031003 194.06769,616.49365 C195.566978,616.037886 196.784916,614.470843 198.466474,614.629329 C198.23186,615.634637 197.996311,616.640883 197.760762,617.646191 C199.472231,616.98974 200.270481,617.586173 201.840807,617.281392 C201.537024,617.340473 205.128212,616.513344 204.76741,616.416752 C205.016045,616.483335 205.942351,618.179792 206.833138,618.602735 C210.513124,620.347957 215.004445,619.048184 218.892873,619.341711 C222.88412,619.642741 226.801524,620.229796 230.823617,620.519572 C233.78387,620.73245 247.695282,622.527376 248,617.454883 C246.9204,617.204493 245.849213,617.236378 244.786439,617.549599" id="react-path-301"></path><path d="M619.762717,151.434137 C620.912678,141.599438 617.643329,133.389161 615.099875,124.147208 C613.014337,116.573758 610.430451,109.03032 605.148906,102.955616 C600.352545,97.4389559 593.093594,90.386972 585.31937,90.0127544 C579.275259,89.722009 575.146495,94.4545946 580.418637,98.8354719 C585.678556,103.205095 590.458933,106.030015 594.620606,111.729564 C599.414147,118.295721 603.026697,125.707854 605.708372,133.361025 C610.59312,147.302738 613.365061,163.743924 608.746412,178.06642 C608.288497,179.486383 606.481281,183.54744 608.290377,184.687913 C610.361811,185.992516 611.962165,182.869347 612.531034,181.531918 C613.061351,180.284526 615.433674,168.485888 617.541779,170.060603 C617.4092,168.437118 616.709632,167.677428 616.809302,166.072701 C616.867599,165.145129 617.666836,163.827396 617.740178,162.625961 C617.979949,158.688705 619.311383,155.296362 619.762717,151.434137" id="react-path-302"></path><path d="M256.237574,100 C262.581534,100.137102 262.801356,85.900739 264.776945,82.038623 C265.704873,80.2256026 266.669282,78.0440062 267.696364,76.3532224 C268.49427,75.0412787 269.469904,74.8434607 270.055472,73.8011839 C272.004869,70.3403024 270.648523,67.5895128 269.774848,64.2434031 C272.078767,63.872961 272.860771,63.882292 273.68861,61.5784591 C273.933687,60.8982265 273.349055,59.6637304 273.833598,59.1514565 C274.500547,58.4469632 275.628653,58.8286026 276.307762,58.2370149 C276.48549,58.0821197 276.41814,56.5975518 276.633285,56.0404889 C277.117828,54.781732 277.505088,54.2993175 278.438629,53.3372876 C279.694886,52.0412066 283.113815,51.3367133 281.981032,49.0692715 C282.825708,49.0338135 283.631098,48.8369286 284.3972,48.4786168 C284.643213,47.3467621 282.34023,47.7769229 282.527312,47.1265496 C282.924862,45.7464893 285.09034,43.9306696 286.460717,43.6488723 C285.291453,43.0395556 284.122189,42.4293058 282.952924,41.819056 C285.891052,41.2004083 285.808736,39.4555045 288.800181,41.4364835 C288.471852,38.6716974 292.24156,36.1345886 293.875724,34.3542268 C296.947615,31.0081171 300.386187,28.1696157 303.782666,25.1575571 C306.73576,22.5392683 309.467161,19.7474221 312.223819,16.9303822 C313.633484,15.488737 315.066534,14.0685533 316.686667,12.8629833 C318.342345,11.6312865 319.635084,11.8729604 321.156998,11.0313009 C323.587197,9.6876316 325.057664,6.96203582 327.500958,5.59223965 C328.601002,4.97452503 329.072449,5.67341967 329.873162,4.89987673 C330.621491,4.1767214 331.298729,1.79264155 330.862827,0.869802037 C329.031291,-3.01377538 315.78493,7.28768899 313.706446,8.62669274 C288.450337,24.8981543 268.117299,47.3262338 257.054188,75.467707 C255.550982,79.2915658 246.981678,99.7965187 256.237574,100" id="react-path-303"></path><path d="M249,620 C250.722321,619.624526 252.45337,619.246837 255,618.693041 C250.447875,616.196529 250.075481,616.322795 249,620" id="react-path-303"></path><path d="M338.227069,169.981597 C341.613649,169.661364 349.003884,166.164772 347.88601,161.397828 C346.855113,156.998238 342.863361,161.739217 340.132307,161.243001 C337.214482,160.714088 335.860399,154.480614 333.407669,160.838142 C332.091124,164.252032 334.032983,170.378762 338.227069,169.981597" id="react-path-304"></path></g></g></g></svg>