<?xml version="1.0" standalone="no"?>
<!DOCTYPE svg PUBLIC "-//W3C//DTD SVG 20010904//EN"
 "http://www.w3.org/TR/2001/REC-SVG-20010904/DTD/svg10.dtd">
<svg version="1.0" xmlns="http://www.w3.org/2000/svg"
 width="500.000000pt" height="500.000000pt" viewBox="0 0 500.000000 500.000000"
 preserveAspectRatio="xMidYMid meet">
<metadata>
Created by potrace 1.15, written by Peter Selinger 2001-2017
</metadata>
<g transform="translate(0.000000,500.000000) scale(0.100000,-0.100000)"
fill="#000000" stroke="none">
<path d="M2400 4644 c-291 -34 -469 -83 -663 -182 -425 -215 -641 -591 -613
-1068 21 -377 220 -660 596 -849 100 -50 290 -112 540 -175 643 -162 976 -296
1111 -448 56 -63 105 -167 119 -255 22 -128 -4 -299 -61 -407 -108 -203 -287
-321 -574 -377 -128 -25 -467 -25 -581 -1 -171 37 -328 104 -480 204 -106 70
-292 252 -349 341 -23 35 -45 61 -52 58 -13 -4 -427 -308 -451 -330 -10 -9 -2
-26 44 -86 226 -294 492 -479 864 -603 408 -136 831 -151 1258 -45 504 125
852 458 949 909 14 66 18 128 18 280 0 226 -15 298 -89 455 -168 353 -563 583
-1276 739 -510 113 -791 229 -908 375 -128 160 -150 416 -51 601 120 226 377
352 745 367 357 14 626 -84 867 -316 76 -73 175 -200 189 -243 3 -8 86 48 231
157 125 93 227 173 227 176 0 19 -130 184 -201 256 -218 219 -537 376 -904
444 -106 20 -413 34 -505 23z"/>
<path d="M4305 3829 c-225 -177 -560 -438 -742 -580 l-333 -260 106 -134 c58
-74 110 -138 115 -141 7 -4 1419 1086 1478 1141 11 11 -5 36 -95 154 -60 77
-111 140 -114 140 -3 0 -189 -144 -415 -320z"/>
<path d="M829 1764 c-404 -306 -740 -562 -748 -569 -11 -11 2 -35 90 -150 56
-75 106 -138 110 -141 11 -7 1494 1121 1494 1136 0 14 -195 279 -206 279 -3 1
-336 -249 -740 -555z"/>
</g>
</svg>
